<!DOCTYPE svg PUBLIC "-//W3C//DTD SVG 1.1//EN" "http://www.w3.org/Graphics/SVG/1.1/DTD/svg11.dtd">
<!-- Uploaded to: SVG Repo, www.svgrepo.com, Transformed by: SVG Repo Mixer Tools -->
<svg fill="#000000" height="800px" width="800px" version="1.1" id="Layer_1" xmlns="http://www.w3.org/2000/svg" xmlns:xlink="http://www.w3.org/1999/xlink" viewBox="0 0 458.076 458.076" xml:space="preserve" stroke="#000000" stroke-width="3.6646080000000003">
<g id="SVGRepo_bgCarrier" stroke-width="0"/>
<g id="SVGRepo_tracerCarrier" stroke-linecap="round" stroke-linejoin="round"/>
<g id="SVGRepo_iconCarrier"> <g> <g> <g> <path d="M41.538,0v49.038c0,11.771,9.576,21.346,21.346,21.346h6.346V436.73c0,11.771,9.576,21.346,21.346,21.346H367.5 c11.771,0,21.346-9.576,21.346-21.346V70.384h6.346c11.771,0,21.346-9.576,21.346-21.346V0H41.538z M373.846,436.73 c0,3.5-2.847,6.346-6.346,6.346H90.577c-3.5,0-6.346-2.847-6.346-6.346V70.384h289.615V436.73z M401.539,49.038L401.539,49.038 c-0.001,3.5-2.848,6.346-6.347,6.346H62.885c-3.5,0-6.346-2.847-6.346-6.346V15h345V49.038z"/> <polygon points="187.5,387.692 139.615,387.692 139.615,326.538 180.577,326.538 180.577,311.538 139.615,311.538 139.615,257.308 180.577,257.308 180.577,242.308 139.615,242.308 139.615,188.077 180.577,188.077 180.577,173.077 139.615,173.077 139.615,118.846 187.5,118.846 187.5,103.846 124.615,103.846 124.615,402.692 187.5,402.692 "/> </g> </g> </g> </g>
</svg>