<?xml version="1.0" standalone="no"?>
<!DOCTYPE svg PUBLIC "-//W3C//DTD SVG 20010904//EN"
 "http://www.w3.org/TR/2001/REC-SVG-20010904/DTD/svg10.dtd">
<svg version="1.0" xmlns="http://www.w3.org/2000/svg"
 width="200.000000pt" height="200.000000pt" viewBox="0 0 200.000000 200.000000"
 preserveAspectRatio="xMidYMid meet">

<g transform="translate(0.000000,200.000000) scale(0.100000,-0.100000)"
fill="#000000" stroke="none">
<path d="M1352 1906 c-179 -29 -206 -35 -226 -57 -25 -26 -166 -388 -166 -426
0 -23 29 -61 178 -238 115 -136 126 -145 171 -145 68 0 422 58 445 73 31 21
178 414 168 451 -9 34 -276 350 -308 365 -32 14 -22 15 -262 -23z m359 -171
c63 -75 115 -139 117 -144 4 -11 -368 -65 -377 -55 -107 123 -232 276 -227
281 8 8 279 50 332 52 41 1 42 0 155 -134z m-422 -104 c84 -100 120 -149 116
-160 -4 -9 -34 -89 -68 -179 -33 -89 -64 -161 -67 -160 -17 7 -250 293 -247
303 67 181 132 345 138 343 3 -2 61 -68 128 -147z m561 -120 c0 -13 -121 -335
-130 -344 -6 -7 -382 -69 -386 -64 -1 1 29 83 66 182 l68 180 163 26 c183 30
219 33 219 20z"/>
<path d="M1526 1794 c-8 -31 -9 -30 26 -39 24 -6 28 -3 34 20 5 18 2 30 -7 36
-26 16 -47 9 -53 -17z"/>
<path d="M1376 1758 c-8 -33 -8 -34 19 -46 23 -11 27 -9 37 14 11 22 9 28 -7
40 -27 20 -42 17 -49 -8z"/>
<path d="M1492 1708 c-10 -27 -9 -30 15 -39 28 -11 37 -5 47 27 5 18 1 24 -22
32 -26 9 -29 7 -40 -20z"/>
<path d="M1609 1664 c-11 -31 -12 -30 23 -39 23 -6 29 -3 37 16 7 18 5 27 -7
37 -25 19 -42 14 -53 -14z"/>
<path d="M1461 1624 c-6 -15 -10 -28 -9 -29 10 -8 50 -26 53 -23 8 10 26 50
23 53 -6 5 -47 25 -51 25 -2 0 -9 -12 -16 -26z"/>
<path d="M1180 1494 c-13 -33 -14 -31 18 -42 26 -9 29 -7 40 20 10 26 8 30
-14 39 -34 12 -33 13 -44 -17z"/>
<path d="M1679 1404 c-11 -31 -12 -30 23 -39 23 -6 29 -3 37 16 7 18 5 27 -7
37 -25 19 -42 14 -53 -14z"/>
<path d="M1549 1323 c-11 -28 -6 -37 27 -47 18 -5 24 -1 32 23 10 28 8 30 -19
40 -27 9 -31 8 -40 -16z"/>
<path d="M1446 1225 c-8 -32 -9 -31 25 -40 23 -6 27 -3 33 20 8 32 9 31 -25
40 -23 6 -27 3 -33 -20z"/>
<path d="M373 1677 c-44 -25 -303 -279 -309 -304 -10 -37 84 -382 111 -409 26
-26 402 -120 436 -109 34 11 316 282 323 311 7 26 -73 344 -100 395 -16 32
-25 35 -251 88 -195 46 -181 44 -210 28z m217 -93 l155 -37 -125 -118 c-69
-66 -131 -119 -138 -119 -19 0 -316 71 -322 77 -10 10 235 233 255 233 11 0
90 -16 175 -36z m244 -235 c20 -75 36 -146 36 -157 0 -13 -44 -62 -122 -136
l-123 -115 -11 27 c-6 15 -26 87 -45 161 l-34 133 125 118 c69 65 128 116 132
112 3 -4 22 -68 42 -143z m-318 -264 c24 -88 42 -160 41 -162 -2 -1 -79 17
-172 40 l-170 42 -42 150 c-23 83 -42 155 -42 161 -1 7 66 -5 171 -30 l171
-41 43 -160z"/>
<path d="M423 1543 c-24 -5 -27 -13 -17 -49 4 -16 11 -20 30 -16 13 2 27 8 29
13 7 10 -5 59 -14 58 -3 -1 -16 -4 -28 -6z"/>
<path d="M451 1419 c-15 -6 -21 -14 -17 -25 3 -9 6 -20 6 -25 0 -12 47 -12 55
1 7 11 -4 60 -14 59 -3 0 -17 -5 -30 -10z"/>
<path d="M718 1363 c-21 -5 -21 -4 -8 -38 9 -23 14 -26 38 -20 35 9 34 8 23
39 -10 25 -18 28 -53 19z"/>
<path d="M633 1243 c-24 -5 -27 -13 -17 -50 5 -19 9 -20 35 -11 16 5 29 13 29
16 -1 18 -13 52 -19 51 -3 -1 -16 -4 -28 -6z"/>
<path d="M758 1243 c-19 -5 -23 -29 -9 -51 11 -19 64 -5 57 15 -3 8 -6 21 -6
29 0 14 -10 16 -42 7z"/>
<path d="M663 1123 c-25 -5 -26 -7 -17 -40 7 -24 47 -33 59 -13 7 11 -4 61
-14 59 -3 -1 -16 -4 -28 -6z"/>
<path d="M333 1162 c-23 -3 -29 -24 -17 -55 4 -11 13 -13 32 -7 21 5 26 12 24
31 -3 30 -11 36 -39 31z"/>
<path d="M1060 923 c-43 -23 -80 -76 -80 -118 0 -17 16 -78 35 -134 19 -57 32
-108 29 -112 -3 -5 -20 -9 -37 -9 -30 0 -35 6 -80 89 -72 136 -129 174 -223
153 -23 -5 -48 -6 -55 -2 -15 10 -301 6 -317 -4 -6 -4 -25 0 -41 9 -50 25
-105 20 -145 -16 -43 -37 -56 -87 -34 -133 9 -17 66 -104 128 -193 100 -144
117 -164 154 -178 22 -8 181 -60 353 -114 l312 -99 236 30 236 30 26 -26 c33
-33 66 -39 208 -34 l117 3 29 33 30 33 -3 235 -3 234 -28 27 -27 28 -146 0
-146 0 -33 -38 -32 -37 -94 35 -94 36 -54 119 c-58 131 -83 159 -149 167 -24
2 -49 -2 -72 -14z m103 -65 c9 -7 40 -65 68 -128 28 -63 55 -119 60 -125 5 -5
60 -28 122 -51 l112 -42 3 -164 2 -165 -235 -29 -236 -28 -127 41 c-70 23
-220 71 -333 107 l-205 66 -106 152 c-132 192 -131 190 -117 222 13 29 40 40
72 32 13 -3 65 -62 130 -150 115 -153 142 -176 214 -176 21 0 140 17 265 38
l227 39 56 -84 c30 -45 58 -83 63 -83 4 0 16 7 26 15 18 14 16 18 -43 108 -46
70 -71 123 -101 212 -22 66 -40 127 -40 136 0 9 9 28 21 43 23 29 72 36 102
14z m-690 -146 c20 -18 145 -195 154 -218 8 -21 -70 -18 -95 4 -20 17 -172
217 -172 226 0 8 44 14 70 9 14 -2 33 -12 43 -21z m170 7 c15 -11 51 -61 82
-112 58 -97 58 -104 -1 -106 -29 -1 -184 217 -163 230 23 15 55 10 82 -12z
m164 -8 c20 -19 107 -170 101 -176 -2 -2 -16 -5 -32 -7 -28 -3 -33 3 -87 92
-32 52 -59 98 -59 103 0 15 57 6 77 -12z m883 -246 l0 -125 30 0 30 0 0 125 0
126 58 -3 57 -3 3 -227 2 -228 -134 0 c-113 0 -135 2 -140 16 -8 20 -8 408 0
428 4 11 19 16 50 16 l44 0 0 -125z"/>
<path d="M1690 235 c0 -43 1 -45 30 -45 29 0 30 2 30 45 0 43 -1 45 -30 45
-29 0 -30 -2 -30 -45z"/>
<path d="M60 361 l0 -111 35 0 36 0 -3 108 -3 107 -32 3 -33 3 0 -110z"/>
<path d="M190 235 l0 -75 30 0 30 0 0 75 0 75 -30 0 -30 0 0 -75z"/>
<path d="M310 125 l0 -66 33 3 32 3 0 60 0 60 -32 3 -33 3 0 -66z"/>
</g>
</svg>
